<?xml version="1.0" encoding="UTF-8" standalone="no"?>
<svg
   xmlns:dc="http://purl.org/dc/elements/1.1/"
   xmlns:cc="http://creativecommons.org/ns#"
   xmlns:rdf="http://www.w3.org/1999/02/22-rdf-syntax-ns#"
   xmlns:svg="http://www.w3.org/2000/svg"
   xmlns="http://www.w3.org/2000/svg"
   width="124.01311mm"
   height="123.98727mm"
   viewBox="0 0 124.01311 123.98727"
   version="1.1"
   id="svg1537">
  <defs
     id="defs1531" />
  <metadata
     id="metadata1534">
    <rdf:RDF>
      <cc:Work
         rdf:about="">
        <dc:format>image/svg+xml</dc:format>
        <dc:type
           rdf:resource="http://purl.org/dc/dcmitype/StillImage" />
        <dc:title></dc:title>
      </cc:Work>
    </rdf:RDF>
  </metadata>
  <g
     id="layer1"
     transform="translate(-43.826783,-86.173032)">
    <path
       d="m 107.60635,86.173032 -0.77618,26.982848 a 35.01231,35.01231 0 0 1 10.37456,1.88412 l 8.77001,-25.530221 a 62.00653,62.00653 0 0 0 -18.36839,-3.336747 z"
       style="fill:#e92644;fill-opacity:1;stroke-width:0.264583"
       id="path1290" />
    <path
       d="m 129.88458,91.002194 -10.47275,24.880136 a 35.01231,35.01231 0 0 1 8.99222,5.50561 l 17.401,-20.63699 a 62.00653,62.00653 0 0 0 -15.92047,-9.748756 z"
       style="fill:#e8bd37;fill-opacity:1;stroke-width:0.264583"
       id="path1292" />
    <path
       d="m 148.91184,103.55543 -18.75441,19.41536 a 35.01231,35.01231 0 0 1 6.39444,8.38347 l 23.68176,-12.95632 a 62.00653,62.00653 0 0 0 -11.32179,-14.84251 z"
       style="fill:#55aa4f;fill-opacity:1;stroke-width:0.264583"
       id="path1294" />
    <path
       d="m 62.299555,103.99933 a 62.00653,62.00653 0 0 0 -11.168308,14.95671 l 23.810949,12.71758 a 35.01231,35.01231 0 0 1 6.305558,-8.44755 z"
       style="fill:#68c152;fill-opacity:1;stroke-width:0.264583"
       id="path1296" />
    <path
       d="m 49.286913,122.71189 a 62.00653,62.00653 0 0 0 -5.009512,17.98029 l 26.79733,3.25562 a 35.01231,35.01231 0 0 1 2.827218,-10.1539 z"
       style="fill:#289ed7;fill-opacity:1;stroke-width:0.264583"
       id="path1298" />
    <path
       d="m 123.42864,178.42321 a 35.01231,35.01231 0 0 1 -9.80353,3.86488 l 6.00997,26.31674 a 62.00653,62.00653 0 0 0 17.36224,-6.84505 z"
       style="fill:#a81d4e;fill-opacity:1;stroke-width:0.264583"
       id="path1300" />
    <path
       d="m 43.914633,144.86041 a 62.00653,62.00653 0 0 0 -0.08785,3.29334 62.00653,62.00653 0 0 0 1.912028,15.28072 l 26.163777,-6.64611 a 35.01231,35.01231 0 0 1 -1.081587,-8.63461 35.01231,35.01231 0 0 1 0.04961,-1.85364 z"
       style="fill:#448c4d;fill-opacity:1;stroke-width:0.264583"
       id="path1302" />
    <path
       d="m 162.11672,122.13518 -24.50238,11.32851 a 35.01231,35.01231 0 0 1 2.93264,10.12651 l 26.76322,-3.52485 a 62.00653,62.00653 0 0 0 -5.19348,-17.93017 z"
       style="fill:#ca2236;fill-opacity:1;stroke-width:0.264583"
       id="path1304" />
    <path
       d="m 72.561462,159.05541 -25.655281,8.39638 a 62.00653,62.00653 0 0 0 8.411371,16.65945 l 21.995041,-15.64969 a 35.01231,35.01231 0 0 1 -4.751131,-9.40614 z"
       style="fill:#cba133;fill-opacity:1;stroke-width:0.264583"
       id="path1306" />
    <path
       d="m 167.71534,144.22995 -26.93995,1.71049 a 35.01231,35.01231 0 0 1 0.0703,2.21331 35.01231,35.01231 0 0 1 -0.99529,8.28786 l 26.22837,6.38307 a 62.00653,62.00653 0 0 0 1.76113,-14.67093 62.00653,62.00653 0 0 0 -0.12454,-3.9238 z"
       style="fill:#f04a2d;fill-opacity:1;stroke-width:0.264583"
       id="path1308" />
    <path
       d="m 139.21476,158.71589 a 35.01231,35.01231 0 0 1 -4.65657,9.45576 l 22.1511,15.42851 a 62.00653,62.00653 0 0 0 8.24343,-16.74575 z"
       style="fill:#31c5e6;fill-opacity:1;stroke-width:0.264583"
       id="path1310" />
    <path
       d="m 133.14381,170.06197 a 35.01231,35.01231 0 0 1 -7.75663,7.13496 l 15.08021,22.38933 a 62.00653,62.00653 0 0 0 13.7356,-12.63592 z"
       style="fill:#f8c918;fill-opacity:1;stroke-width:0.264583"
       id="path1312" />
    <path
       d="m 81.195043,91.252825 a 62.00653,62.00653 0 0 0 -15.818157,9.911025 l 17.607196,20.4618 a 35.01231,35.01231 0 0 1 8.932788,-5.59966 z"
       style="fill:#2376a6;fill-opacity:1;stroke-width:0.264583"
       id="path1314" />
    <path
       d="M 78.745581,170.33792 57.856933,187.4361 a 62.00653,62.00653 0 0 0 13.861169,12.49588 l 14.854907,-22.53971 a 35.01231,35.01231 0 0 1 -7.827428,-7.05435 z"
       style="fill:#f8a72b;fill-opacity:1;stroke-width:0.264583"
       id="path1316" />
    <path
       d="m 111.29346,182.73768 a 35.01231,35.01231 0 0 1 -5.46013,0.4284 35.01231,35.01231 0 0 1 -5.07721,-0.37 l -3.91397,26.70896 a 62.00653,62.00653 0 0 0 8.99118,0.65526 62.00653,62.00653 0 0 0 9.67021,-0.75861 z"
       style="fill:#f37534;fill-opacity:1;stroke-width:0.264583"
       id="path1318" />
    <path
       d="m 88.58684,178.62372 -13.299445,23.49055 a 62.00653,62.00653 0 0 0 17.438211,6.64508 l 5.708179,-26.38392 a 35.01231,35.01231 0 0 1 -9.846945,-3.75171 z"
       style="fill:#df1673;fill-opacity:1;stroke-width:0.264583"
       id="path1320" />
    <path
       d="m 103.42159,86.194219 a 62.00653,62.00653 0 0 0 -18.332211,3.525883 l 9.02529,25.440828 a 35.01231,35.01231 0 0 1 10.353891,-1.99213 z"
       style="fill:#145174;fill-opacity:1;stroke-width:0.264583"
       id="path1322" />
  </g>
</svg>
